<svg width="804" height="758" viewBox="0 0 804 758" fill="none" xmlns="http://www.w3.org/2000/svg">
<path d="M402 748C617.902 748 794 583.369 794 379C794 174.631 617.902 10 402 10C186.098 10 10 174.631 10 379C10 583.369 186.098 748 402 748Z" fill="white" stroke="#90427B" stroke-width="20"/>
<path d="M242.825 158.862C240.191 154.079 234.196 152.276 229.469 155.009C190.851 177.336 158.587 208.938 135.757 246.903C111.252 287.656 98.547 334.196 99.0123 381.508C99.4776 428.82 113.095 475.111 138.398 515.393C161.969 552.919 194.849 583.904 233.899 605.496C238.679 608.138 244.639 606.22 247.18 601.385L258.283 580.257C260.881 575.314 258.914 569.221 254.051 566.475C222.317 548.559 195.58 523.142 176.316 492.473C155.265 458.961 143.936 420.449 143.549 381.087C143.162 341.725 153.732 303.005 174.119 269.101C192.775 238.076 219.005 212.159 250.378 193.645C255.189 190.806 257.039 184.674 254.344 179.781L242.825 158.862Z" fill="url(#paint0_linear)"/>
<path d="M561.012 158.868C563.646 154.085 569.64 152.283 574.367 155.016C612.982 177.343 645.243 208.944 668.07 246.907C692.574 287.658 705.278 334.195 704.813 381.505C704.348 428.814 690.733 475.103 665.434 515.383C641.865 552.908 608.989 583.893 569.944 605.486C565.164 608.129 559.203 606.211 556.662 601.376L545.557 580.249C542.959 575.307 544.926 569.213 549.788 566.467C581.519 548.549 608.253 523.132 627.514 492.465C648.562 458.954 659.89 420.444 660.276 381.084C660.663 341.724 650.094 303.007 629.708 269.104C611.054 238.081 584.827 212.165 553.456 193.651C548.646 190.811 546.796 184.679 549.491 179.786L561.012 158.868Z" fill="url(#paint1_linear)"/>
<path d="M365.976 398.224C365.976 391.906 368.027 386.682 372.13 382.552C376.233 378.178 381.422 375.991 387.697 375.991C403.626 375.991 416.417 372.225 426.071 364.693C435.724 357.16 440.551 345.497 440.551 329.704C440.551 317.555 436.207 307.471 427.519 299.453C418.83 291.434 407.97 287.425 394.937 287.425C381.663 287.425 369.958 291.92 359.822 300.911C354.029 306.256 347.996 308.929 341.721 308.929C337.135 308.929 333.033 307.471 329.412 304.555C323.137 299.696 320 293.986 320 287.425C320 281.837 322.293 276.734 326.878 272.117C335.567 263.127 345.703 256.202 357.288 251.343C369.113 246.24 381.663 243.689 394.937 243.689C411.349 243.689 426.312 247.455 439.827 254.987C453.342 262.52 464.082 272.968 472.046 286.332C480.011 299.453 483.993 313.91 483.993 329.704C483.993 353.03 477.356 371.496 464.082 385.103C450.808 398.71 433.19 407.214 411.228 410.616C410.021 411.102 409.418 411.709 409.418 412.438V425.924C409.418 432.241 407.366 437.587 403.264 441.96C399.161 446.091 393.972 448.156 387.697 448.156C381.422 448.156 376.233 446.091 372.13 441.96C368.027 437.587 365.976 432.241 365.976 425.924V398.224ZM385.887 513.396C378.888 513.396 373.458 511.574 369.596 507.929C365.976 504.042 364.166 498.575 364.166 491.528V485.332C364.166 478.286 365.976 472.94 369.596 469.295C373.458 465.408 378.888 463.464 385.887 463.464H390.593C397.592 463.464 402.902 465.408 406.522 469.295C410.383 472.94 412.314 478.286 412.314 485.332V491.528C412.314 498.575 410.383 504.042 406.522 507.929C402.902 511.574 397.592 513.396 390.593 513.396H385.887Z" fill="url(#paint2_linear)"/>
<path d="M250.476 244.493C246.583 240.658 240.311 240.641 236.611 244.662C220.963 261.665 208.386 281.214 199.452 302.463C189.251 326.728 184 352.736 184 379C184 405.264 189.251 431.272 199.452 455.537C208.386 476.786 220.963 496.335 236.611 513.338C240.312 517.359 246.583 517.342 250.476 513.507L261.452 502.692C265.428 498.775 265.403 492.381 261.675 488.229C249.409 474.568 239.513 458.979 232.411 442.087C224.002 422.086 219.674 400.649 219.674 379C219.674 357.351 224.002 335.914 232.411 315.913C239.513 299.021 249.409 283.432 261.675 269.771C265.403 265.619 265.428 259.225 261.452 255.308L250.476 244.493Z" fill="url(#paint3_linear)"/>
<path d="M562.524 244.493C566.417 240.658 572.689 240.641 576.389 244.662C592.037 261.665 604.614 281.214 613.548 302.463C623.749 326.728 629 352.736 629 379C629 405.264 623.749 431.272 613.548 455.537C604.614 476.786 592.037 496.335 576.389 513.338C572.688 517.359 566.417 517.342 562.524 513.507L551.548 502.692C547.572 498.775 547.597 492.381 551.325 488.229C563.591 474.568 573.487 458.979 580.589 442.087C588.998 422.086 593.326 400.649 593.326 379C593.326 357.351 588.998 335.914 580.589 315.913C573.487 299.021 563.591 283.432 551.325 269.771C547.597 265.619 547.572 259.225 551.548 255.308L562.524 244.493Z" fill="url(#paint4_linear)"/>
<path d="M372.934 591.522C373.594 592.226 373.924 592.996 373.924 593.832C373.924 594.712 373.572 595.46 372.868 596.076C372.208 596.648 371.504 596.934 370.756 596.934C369.788 596.934 369.018 596.582 368.446 595.878L355.444 582.084L351.484 585.648V593.832C351.484 594.712 351.176 595.46 350.56 596.076C349.988 596.692 349.262 597 348.382 597C347.458 597 346.688 596.692 346.072 596.076C345.5 595.46 345.214 594.712 345.214 593.832V551.328C345.214 550.448 345.5 549.7 346.072 549.084C346.688 548.468 347.458 548.16 348.382 548.16C349.262 548.16 349.988 548.468 350.56 549.084C351.176 549.7 351.484 550.448 351.484 551.328V578.124L367.654 563.274C368.402 562.614 369.172 562.284 369.964 562.284C370.712 562.284 371.394 562.614 372.01 563.274C372.626 563.89 372.934 564.55 372.934 565.254C372.934 566.134 372.516 566.926 371.68 567.63L360.262 577.794L372.934 591.522ZM406.713 562.416C407.637 562.416 408.385 562.724 408.957 563.34C409.573 563.956 409.881 564.704 409.881 565.584V583.14C409.881 587.716 408.605 591.28 406.053 593.832C403.545 596.34 399.981 597.594 395.361 597.594C390.785 597.594 387.243 596.34 384.735 593.832C382.227 591.28 380.973 587.716 380.973 583.14V565.584C380.973 564.704 381.259 563.956 381.831 563.34C382.447 562.724 383.195 562.416 384.075 562.416C384.999 562.416 385.747 562.724 386.319 563.34C386.935 563.956 387.243 564.704 387.243 565.584V583.14C387.243 588.904 389.949 591.786 395.361 591.786C398.045 591.786 400.091 591.06 401.499 589.608C402.907 588.156 403.611 586 403.611 583.14V565.584C403.611 564.704 403.897 563.956 404.469 563.34C405.085 562.724 405.833 562.416 406.713 562.416ZM425.198 593.832C425.198 594.712 424.89 595.46 424.274 596.076C423.702 596.692 422.954 597 422.03 597C421.15 597 420.402 596.692 419.786 596.076C419.214 595.46 418.928 594.712 418.928 593.832V565.254C418.928 564.374 419.214 563.626 419.786 563.01C420.402 562.394 421.15 562.086 422.03 562.086C422.954 562.086 423.702 562.394 424.274 563.01C424.89 563.626 425.198 564.374 425.198 565.254V593.832ZM422.03 557.73C420.754 557.73 419.83 557.51 419.258 557.07C418.73 556.586 418.466 555.838 418.466 554.826V553.77C418.466 552.714 418.752 551.966 419.324 551.526C419.94 551.086 420.864 550.866 422.096 550.866C423.328 550.866 424.208 551.108 424.736 551.592C425.308 552.032 425.594 552.758 425.594 553.77V554.826C425.594 555.882 425.308 556.63 424.736 557.07C424.164 557.51 423.262 557.73 422.03 557.73ZM432.231 591.588C431.835 590.972 431.637 590.378 431.637 589.806C431.637 588.926 432.099 588.178 433.023 587.562C433.463 587.254 433.969 587.1 434.541 587.1C435.333 587.1 436.059 587.43 436.719 588.09C438.039 589.586 439.447 590.708 440.943 591.456C442.483 592.204 444.309 592.578 446.421 592.578C448.093 592.534 449.567 592.16 450.843 591.456C452.119 590.708 452.757 589.52 452.757 587.892C452.757 586.396 452.097 585.252 450.777 584.46C449.501 583.668 447.609 582.942 445.101 582.282C442.637 581.622 440.591 580.94 438.963 580.236C437.335 579.488 435.949 578.432 434.805 577.068C433.705 575.66 433.155 573.834 433.155 571.59C433.155 569.61 433.705 567.872 434.805 566.376C435.949 564.88 437.445 563.714 439.293 562.878C441.185 562.042 443.231 561.624 445.431 561.624C447.543 561.624 449.633 562.02 451.701 562.812C453.813 563.604 455.529 564.814 456.849 566.442C457.377 567.058 457.641 567.696 457.641 568.356C457.641 569.06 457.289 569.742 456.585 570.402C456.145 570.798 455.595 570.996 454.935 570.996C454.143 570.996 453.505 570.732 453.021 570.204C452.097 569.148 450.953 568.334 449.589 567.762C448.269 567.19 446.795 566.904 445.167 566.904C443.495 566.904 442.065 567.256 440.877 567.96C439.733 568.62 439.161 569.764 439.161 571.392C439.205 572.932 439.865 574.076 441.141 574.824C442.461 575.572 444.463 576.298 447.147 577.002C449.479 577.618 451.415 578.278 452.955 578.982C454.495 579.686 455.793 580.742 456.849 582.15C457.905 583.514 458.433 585.318 458.433 587.562C458.433 589.63 457.839 591.434 456.651 592.974C455.463 594.47 453.901 595.636 451.965 596.472C450.073 597.264 448.049 597.66 445.893 597.66C443.121 597.66 440.547 597.176 438.171 596.208C435.839 595.24 433.859 593.7 432.231 591.588Z" fill="#72306D"/>
<defs>
<linearGradient id="paint0_linear" x1="205.596" y1="240.522" x2="49.9858" y2="858.051" gradientUnits="userSpaceOnUse">
<stop stop-color="#AD5389"/>
<stop offset="0.463542" stop-color="#76336F"/>
<stop offset="1" stop-color="#3C1053"/>
</linearGradient>
<linearGradient id="paint1_linear" x1="598.23" y1="240.522" x2="753.839" y2="858.051" gradientUnits="userSpaceOnUse">
<stop stop-color="#AD5389"/>
<stop offset="0.463542" stop-color="#76336F"/>
<stop offset="1" stop-color="#3C1053"/>
</linearGradient>
<linearGradient id="paint2_linear" x1="404.099" y1="205.761" x2="404.099" y2="635.607" gradientUnits="userSpaceOnUse">
<stop stop-color="#AD5389"/>
<stop offset="0.432292" stop-color="#8E407A"/>
<stop offset="0.72549" stop-color="#702F6C"/>
</linearGradient>
<linearGradient id="paint3_linear" x1="387" y1="291" x2="387" y2="579" gradientUnits="userSpaceOnUse">
<stop stop-color="#AD5389"/>
<stop offset="1" stop-color="#72306D"/>
</linearGradient>
<linearGradient id="paint4_linear" x1="426" y1="291" x2="426" y2="579" gradientUnits="userSpaceOnUse">
<stop stop-color="#AD5389"/>
<stop offset="1" stop-color="#72306D"/>
</linearGradient>
</defs>
</svg>
